<svg id="Layer_1" data-name="Layer 1" xmlns="http://www.w3.org/2000/svg" xmlns:xlink="http://www.w3.org/1999/xlink" viewBox="0 0 276.38 69.99"><defs><style>.cls-1{fill:#38160c}.cls-2{fill:#f15a24}.cls-3{fill:#f7720f}.cls-4{fill:url(#linear-gradient)}.cls-5{fill:url(#linear-gradient-2)}.cls-6{fill:url(#linear-gradient-3)}.cls-7{fill:url(#linear-gradient-4)}.cls-8{fill:url(#linear-gradient-5)}.cls-9{fill:url(#linear-gradient-6)}.cls-10{fill:url(#linear-gradient-7)}.cls-11{fill:url(#linear-gradient-8)}.cls-12{fill:url(#linear-gradient-9)}.cls-13{fill:url(#linear-gradient-10)}.cls-14{fill:url(#linear-gradient-11)}.cls-15{fill:url(#linear-gradient-12)}.cls-16{fill:url(#linear-gradient-13)}.cls-17{fill:url(#linear-gradient-14)}.cls-18{fill:url(#linear-gradient-15)}.cls-19{fill:url(#linear-gradient-16)}.cls-20{fill:url(#linear-gradient-17)}.cls-21{fill:url(#linear-gradient-18)}.cls-22{fill:url(#linear-gradient-19)}.cls-23{fill:url(#linear-gradient-20)}.cls-24{fill:url(#linear-gradient-21)}.cls-25{fill:url(#linear-gradient-22)}.cls-26{fill:url(#linear-gradient-23)}.cls-27{fill:url(#linear-gradient-24)}.cls-28{fill:url(#linear-gradient-25)}.cls-29{fill:url(#linear-gradient-26)}.cls-30{fill:url(#linear-gradient-27)}</style><linearGradient id="linear-gradient" x1="268.5" y1="520.9" x2="278.81" y2="520.9" gradientTransform="matrix(.45 -.69 .65 .51 -257.25 -40.34)" gradientUnits="userSpaceOnUse"><stop offset="0" stop-color="#fff"/><stop offset=".03" stop-color="#fff2e4"/><stop offset=".07" stop-color="#ffdebb"/><stop offset=".12" stop-color="#ffcc95"/><stop offset=".17" stop-color="#ffbd75"/><stop offset=".23" stop-color="#ffb059"/><stop offset=".3" stop-color="#ffa543"/><stop offset=".38" stop-color="#ff9d32"/><stop offset=".48" stop-color="#ff9727"/><stop offset=".62" stop-color="#ff9420"/><stop offset="1" stop-color="#ff931e"/></linearGradient><linearGradient id="linear-gradient-2" x1="193.09" y1="28.47" x2="200.82" y2="28.47" xlink:href="#linear-gradient"/><linearGradient id="linear-gradient-3" x1="184.7" y1="49.35" x2="193.52" y2="49.35" xlink:href="#linear-gradient"/><linearGradient id="linear-gradient-4" x1="149.89" y1="36.03" x2="159.78" y2="36.03" xlink:href="#linear-gradient"/><linearGradient id="linear-gradient-5" x1="156.58" y1="20.69" x2="162.31" y2="20.69" xlink:href="#linear-gradient"/><linearGradient id="linear-gradient-6" x1="146.3" y1="112.05" x2="156.12" y2="112.05" gradientTransform="matrix(1.2 -.44 -.44 1.2 51.31 -36.59)" xlink:href="#linear-gradient"/><linearGradient id="linear-gradient-7" x1="176.58" y1="12.83" x2="184.16" y2="12.83" xlink:href="#linear-gradient"/><linearGradient id="linear-gradient-8" x1="166.91" y1="56.84" x2="175.41" y2="56.84" xlink:href="#linear-gradient"/><linearGradient id="linear-gradient-9" x1="171.08" y1="71.56" x2="180.1" y2="71.56" xlink:href="#linear-gradient"/><linearGradient id="linear-gradient-10" x1="165.62" y1="64.48" x2="172.2" y2="64.48" xlink:href="#linear-gradient"/><linearGradient id="linear-gradient-11" x1="173.9" y1="35.91" x2="177.71" y2="35.91" xlink:href="#linear-gradient"/><linearGradient id="linear-gradient-12" x1="163.95" y1="31.79" x2="172.66" y2="31.79" xlink:href="#linear-gradient"/><linearGradient id="linear-gradient-13" x1="193.45" y1="51.69" x2="200.04" y2="51.69" xlink:href="#linear-gradient"/><linearGradient id="linear-gradient-14" x1="181.78" y1="63.78" x2="192.76" y2="63.78" xlink:href="#linear-gradient"/><linearGradient id="linear-gradient-15" x1="175.89" y1="25.61" x2="179.08" y2="25.61" xlink:href="#linear-gradient"/><linearGradient id="linear-gradient-16" x1="168.74" y1="23.01" x2="173.13" y2="23.01" xlink:href="#linear-gradient"/><linearGradient id="linear-gradient-17" x1="167.23" y1="71.16" x2="171.62" y2="71.16" gradientTransform="rotate(-2.97 -52.775 -115.818)" xlink:href="#linear-gradient"/><linearGradient id="linear-gradient-18" x1="190.19" y1="40.06" x2="200.45" y2="40.06" xlink:href="#linear-gradient"/><linearGradient id="linear-gradient-19" x1="152.34" y1="25.11" x2="158.33" y2="25.11" xlink:href="#linear-gradient"/><linearGradient id="linear-gradient-20" x1="-281.15" y1="-313.47" x2="-276.76" y2="-313.47" gradientTransform="rotate(170.81 -59.28 -100.066)" xlink:href="#linear-gradient"/><linearGradient id="linear-gradient-21" x1="34.36" y1="-392.05" x2="37.92" y2="-392.05" gradientTransform="rotate(107.78 -54.44 -100.034)" xlink:href="#linear-gradient"/><linearGradient id="linear-gradient-22" x1="138.74" y1="24.01" x2="143.13" y2="24.01" xlink:href="#linear-gradient"/><linearGradient id="linear-gradient-23" x1="155.9" y1="42.91" x2="159.71" y2="42.91" xlink:href="#linear-gradient"/><linearGradient id="linear-gradient-24" x1="143.34" y1="28.11" x2="149.33" y2="28.11" xlink:href="#linear-gradient"/><linearGradient id="linear-gradient-25" x1="198.74" y1="50.01" x2="203.13" y2="50.01" xlink:href="#linear-gradient"/><linearGradient id="linear-gradient-26" x1="213.62" y1="74.48" x2="220.2" y2="74.48" xlink:href="#linear-gradient"/><linearGradient id="linear-gradient-27" x1="23.21" y1="-416.8" x2="26.77" y2="-416.8" gradientTransform="rotate(107.78 -54.44 -100.034)" xlink:href="#linear-gradient"/></defs><title>httpoxy logo</title><path class="cls-1" d="M13.28 24.38c0-2.72 1.44-4.16 4.16-4.16h4.77c2.72 0 4.16 1.44 4.16 4.16v12.94c0 2-.15 3.33-.15 3.33h.15c2.19-3.86 6.73-6.2 11.88-6.2 7.87 0 14 3.63 14 14.6v21.11c0 2.72-1.44 4.16-4.16 4.16h-4.77c-2.72 0-4.16-1.44-4.16-4.16V51.47c0-3.63-1.44-5.15-4.31-5.15-5.67 0-8.47 4.46-8.47 10.44v13.4c0 2.72-1.44 4.16-4.16 4.16h-4.78c-2.72 0-4.16-1.44-4.16-4.16zM61.33 46.25h-1.14c-2.65 0-4.09-1.44-4.09-4.16v-1.9c0-2.72 1.44-4.16 4.16-4.16h1.44V29c0-2.72 1.44-4.16 4.16-4.16h4.39c2.72 0 4.16 1.44 4.16 4.16v7h4c2.72 0 4.16 1.44 4.16 4.16v1.89c0 2.72-1.44 4.16-4.09 4.16h-4.06v11.84c0 3.33 2.19 4.62 4.54 4.92 3 .38 4.16 1.29 4.16 4.16v3.41c0 3.1-1.89 4.16-5.37 4.16-5.75 0-16.42-2.7-16.42-14.23zM91.14 46.25H90c-2.65 0-4.09-1.44-4.09-4.16v-1.9c0-2.72 1.44-4.16 4.16-4.16h1.44V29c0-2.72 1.44-4.16 4.16-4.16h4.39c2.72 0 4.16 1.44 4.16 4.16v7h4c2.72 0 4.16 1.44 4.16 4.16v1.89c0 2.72-1.44 4.16-4.09 4.16h-4.09v11.84c0 3.33 2.19 4.62 4.54 4.92 3 .38 4.16 1.29 4.16 4.16v3.41c0 3.1-1.89 4.16-5.37 4.16-5.75 0-16.42-2.65-16.42-14.23z" transform="translate(-13.28 -20.22)"/><path class="cls-2" d="M118.37 39.51c0-2.72 1.44-4.16 4.16-4.16h3.4c2.72 0 4.16 1.44 4.16 3.4v.83a4.43 4.43 0 0 1-.08.76h.15a13.94 13.94 0 0 1 11.8-5.9c10.59 0 17.55 8.32 17.55 20.43 0 12.33-7.79 20.35-18.16 20.35-7 0-9.91-4.46-9.91-4.46h-.15s.15 1.36.15 3.33v11.2c0 2.72-1.44 4.16-4.16 4.16h-4.77c-2.72 0-4.16-1.44-4.16-4.16zm20.35 24.9c4.09 0 7.64-3.33 7.64-9.31 0-5.83-3.1-9.61-7.64-9.61-3.93 0-7.64 2.88-7.64 9.61.01 4.69 2.5 9.31 7.65 9.31zM222.94 55l-9.38-14.68c-1.82-2.8-.61-5 2.8-5h5.37a5.06 5.06 0 0 1 4.92 3l2.72 5.67c.53 1 1.21 2.57 1.21 2.57h.15s.76-1.59 1.21-2.57l2.72-5.67a5.06 5.06 0 0 1 4.92-3H245c3.41 0 4.62 2.19 2.8 5L238.45 55l9.08 14.3c1.82 2.8.61 5-2.8 5h-5.07a5.13 5.13 0 0 1-4.92-3l-3.1-5.83c-.38-.68-.91-2-.91-2h-.15s-.53 1.29-.91 2l-3 5.83a5.13 5.13 0 0 1-4.92 3h-5.07c-3.41 0-4.62-2.19-2.8-5zM256.54 79.16a8.84 8.84 0 0 0 2.27.38c2.35 0 4.46-1.89 5.37-4.16l.76-1.82-14.46-33.37c-1.29-2.88 0-4.84 3.18-4.84h5.9a4.54 4.54 0 0 1 4.77 3.4l4.62 14.53c.68 2.12 1.44 6.05 1.44 6.05h.15s.76-3.71 1.29-5.83l3.93-14.6a4.38 4.38 0 0 1 4.69-3.56H286c3 0 4.39 1.89 3.33 4.77l-14.26 38.37c-3.25 8.7-10.06 11.73-16.27 11.73a16.65 16.65 0 0 1-5.45-1c-2.5-.83-3.1-3-2-5.45l1-2.2c1.01-2.32 2.6-2.7 4.19-2.4z" transform="translate(-13.28 -20.22)"/><path class="cls-3" d="M188.86 76.49a21.89 21.89 0 1 1 21.89-21.89 21.91 21.91 0 0 1-21.89 21.89zm-.69-31.08a9.11 9.11 0 1 0 9.11 9.11 9.12 9.12 0 0 0-9.1-9.11z" transform="translate(-13.28 -20.22)"/><path class="cls-2" d="M188.86 34a20.64 20.64 0 1 1-20.63 20.6A20.64 20.64 0 0 1 188.86 34m-.69 30.92a10.36 10.36 0 1 0-10.36-10.36 10.36 10.36 0 0 0 10.36 10.36m.69-33.42A23.14 23.14 0 1 0 212 54.6a23.16 23.16 0 0 0-23.14-23.14zm-.69 30.92a7.86 7.86 0 1 1 7.83-7.9 7.87 7.87 0 0 1-7.86 7.86z" transform="translate(-13.28 -20.22)"/><path class="cls-4" d="M204.7 42.89c-1.79 0-3.45-1.88-3.86-4.38a6.2 6.2 0 0 1 .41-3.55 3.11 3.11 0 0 1 2.27-1.96 2.59 2.59 0 0 1 .41 0c1.79 0 3.45 1.88 3.85 4.38.44 2.71-.76 5.16-2.68 5.47a2.6 2.6 0 0 1-.4.04z" transform="translate(-13.28 -20.22)"/><path class="cls-2" d="M203.93 33.5c1.53 0 3 1.69 3.36 4 .39 2.44-.62 4.63-2.26 4.9h-.33c-1.53 0-3-1.69-3.36-4-.39-2.44.62-4.63 2.26-4.9h.33m0-1a3.08 3.08 0 0 0-.49 0 3.63 3.63 0 0 0-2.65 2.2 6.71 6.71 0 0 0-.45 3.84c.45 2.78 2.28 4.8 4.35 4.8a3.08 3.08 0 0 0 .49 0c2.22-.36 3.58-3 3.09-6-.45-2.78-2.28-4.8-4.35-4.8z" transform="translate(-13.28 -20.22)"/><circle class="cls-5" cx="196.95" cy="28.47" r="3.87"/><path class="cls-2" d="M210.23 45.32a3.37 3.37 0 1 1-3.37 3.37 3.37 3.37 0 0 1 3.37-3.37m0-1a4.37 4.37 0 1 0 4.37 4.37 4.37 4.37 0 0 0-4.37-4.37z" transform="translate(-13.28 -20.22)"/><circle class="cls-6" cx="189.11" cy="49.35" r="4.41"/><path class="cls-2" d="M202.39 65.65a3.91 3.91 0 1 1-3.91 3.91 3.91 3.91 0 0 1 3.91-3.91m0-1a4.91 4.91 0 1 0 4.91 4.91 4.92 4.92 0 0 0-4.91-4.91z" transform="translate(-13.28 -20.22)"/><circle class="cls-7" cx="154.84" cy="36.03" r="4.95"/><path class="cls-2" d="M168.12 51.81a4.45 4.45 0 1 1-4.45 4.45 4.45 4.45 0 0 1 4.45-4.45m0-1a5.45 5.45 0 1 0 5.45 5.45 5.45 5.45 0 0 0-5.45-5.45z" transform="translate(-13.28 -20.22)"/><circle class="cls-8" cx="159.44" cy="20.69" r="2.86"/><path class="cls-2" d="M172.72 38.54a2.36 2.36 0 1 1-2.36 2.36 2.36 2.36 0 0 1 2.36-2.36m0-1a3.36 3.36 0 1 0 3.36 3.36 3.37 3.37 0 0 0-3.36-3.36z" transform="translate(-13.28 -20.22)"/><path class="cls-9" d="M183.21 36.11a4.77 4.77 0 1 1 3.38-1.4 4.74 4.74 0 0 1-3.38 1.4z" transform="translate(-13.28 -20.22)"/><path class="cls-2" d="M183.21 27.07a4.27 4.27 0 1 1-3 1.25 4.26 4.26 0 0 1 3-1.25m0-1a5.27 5.27 0 1 0 3.73 1.54 5.24 5.24 0 0 0-3.73-1.54z" transform="translate(-13.28 -20.22)"/><circle class="cls-10" cx="180.37" cy="12.83" r="3.79"/><path class="cls-2" d="M193.65 29.76a3.29 3.29 0 1 1-3.29 3.24 3.29 3.29 0 0 1 3.29-3.29m0-1a4.29 4.29 0 1 0 4.29 4.29 4.3 4.3 0 0 0-4.29-4.29z" transform="translate(-13.28 -20.22)"/><circle class="cls-11" cx="171.16" cy="56.84" r="4.25"/><path class="cls-2" d="M184.43 73.31a3.75 3.75 0 1 1-3.75 3.75 3.75 3.75 0 0 1 3.75-3.75m0-1a4.75 4.75 0 1 0 4.75 4.75 4.75 4.75 0 0 0-4.75-4.75z" transform="translate(-13.28 -20.22)"/><path class="cls-12" d="M174.39 76.07a3.28 3.28 0 0 1-2.38-.92 3.46 3.46 0 0 1-.87-3.06 6 6 0 0 1 1.73-3.26 5.71 5.71 0 0 1 3.93-1.78 3.28 3.28 0 0 1 2.38.92c1.5 1.5 1.12 4.34-.86 6.31a5.71 5.71 0 0 1-3.93 1.79z" transform="translate(-13.28 -20.22)"/><path class="cls-2" d="M176.8 67.55a2.8 2.8 0 0 1 2 .78c1.31 1.31.93 3.82-.86 5.61a5.24 5.24 0 0 1-3.58 1.64 2.8 2.8 0 0 1-2-.78c-1.31-1.31-.93-3.82.86-5.61a5.24 5.24 0 0 1 3.58-1.64m0-1a6.21 6.21 0 0 0-4.29 1.93 6.49 6.49 0 0 0-1.87 3.52 4 4 0 0 0 1 3.48 3.82 3.82 0 0 0 2.74 1.07 6.21 6.21 0 0 0 4.29-1.93 6.49 6.49 0 0 0 1.87-3.54 4 4 0 0 0-1-3.48 3.82 3.82 0 0 0-2.74-1.07z" transform="translate(-13.28 -20.22)"/><path class="cls-13" d="M168.91 66.78c-1.85 0-3.29-1-3.29-2.3s1.45-2.3 3.29-2.3 3.29 1 3.29 2.3-1.44 2.3-3.29 2.3z" transform="translate(-13.28 -20.22)"/><path class="cls-2" d="M168.91 62.69c1.54 0 2.79.8 2.79 1.8s-1.25 1.8-2.79 1.8-2.79-.8-2.79-1.8 1.25-1.8 2.79-1.8m0-1c-2.13 0-3.79 1.23-3.79 2.8s1.67 2.8 3.79 2.8 3.79-1.23 3.79-2.8-1.67-2.8-3.79-2.8z" transform="translate(-13.28 -20.22)"/><path class="cls-14" d="M176.41 37.81a2.77 2.77 0 0 1-2.51-2.51 1.25 1.25 0 0 1 1.3-1.3 2.77 2.77 0 0 1 2.51 2.51 1.25 1.25 0 0 1-1.3 1.3z" transform="translate(-13.28 -20.22)"/><path class="cls-2" d="M175.2 34.5a2 2 0 0 1 1.35.65c.66.66.85 1.52.44 1.94a.8.8 0 0 1-.58.22 2 2 0 0 1-1.35-.65c-.66-.66-.85-1.52-.44-1.94a.8.8 0 0 1 .58-.22m0-1a1.8 1.8 0 0 0-1.29.51 1.9 1.9 0 0 0-.45 1.81 3.25 3.25 0 0 0 .89 1.55 3 3 0 0 0 2.06.95 1.8 1.8 0 0 0 1.29-.51 1.9 1.9 0 0 0 .45-1.81 3.25 3.25 0 0 0-.89-1.55 3 3 0 0 0-2.06-.95z" transform="translate(-13.28 -20.22)"/><circle class="cls-15" cx="168.3" cy="31.79" r="4.35"/><path class="cls-2" d="M181.58 48.16a3.85 3.85 0 1 1-3.85 3.84 3.85 3.85 0 0 1 3.85-3.85m0-1a4.85 4.85 0 1 0 4.85 4.85 4.86 4.86 0 0 0-4.85-4.85z" transform="translate(-13.28 -20.22)"/><path class="cls-16" d="M196.75 57.37c-1.85 0-3.3-2.5-3.3-5.68s1.45-5.69 3.3-5.69 3.25 2.5 3.25 5.69-1.41 5.68-3.25 5.68z" transform="translate(-13.28 -20.22)"/><path class="cls-2" d="M196.75 46.51c1.54 0 2.8 2.32 2.8 5.18s-1.25 5.18-2.8 5.18-2.8-2.32-2.8-5.18 1.25-5.18 2.8-5.18m0-1c-2.16 0-3.8 2.66-3.8 6.18s1.63 6.18 3.8 6.18 3.8-2.66 3.8-6.18-1.63-6.18-3.8-6.18z" transform="translate(-13.28 -20.22)"/><path class="cls-17" d="M187.27 67.17c-3.08 0-5.49-1.49-5.49-3.39s2.41-3.39 5.49-3.39 5.49 1.49 5.49 3.39-2.41 3.39-5.49 3.39z" transform="translate(-13.28 -20.22)"/><path class="cls-2" d="M187.27 60.89c2.75 0 5 1.3 5 2.89s-2.23 2.89-5 2.89-5-1.3-5-2.89 2.23-2.89 5-2.89m0-1c-3.36 0-6 1.71-6 3.89s2.63 3.89 6 3.89 6-1.71 6-3.89-2.63-3.89-6-3.89z" transform="translate(-13.28 -20.22)"/><circle class="cls-18" cx="177.48" cy="25.61" r="1.6"/><path class="cls-2" d="M190.76 44.73a1.1 1.1 0 1 1-1.1 1.1 1.1 1.1 0 0 1 1.1-1.1m0-1a2.1 2.1 0 1 0 2.1 2.1 2.1 2.1 0 0 0-2.1-2.1z" transform="translate(-13.28 -20.22)"/><circle class="cls-19" cx="170.93" cy="23.01" r="2.2"/><path class="cls-2" d="M184.21 41.53a1.7 1.7 0 1 1-1.7 1.7 1.7 1.7 0 0 1 1.7-1.7m0-1a2.7 2.7 0 1 0 2.7 2.7 2.7 2.7 0 0 0-2.7-2.7z" transform="translate(-13.28 -20.22)"/><path class="cls-20" d="M178.81 61.58a2.2 2.2 0 0 1-.11-4.39h.12a2.2 2.2 0 0 1 .11 4.39z" transform="translate(-13.28 -20.22)"/><path class="cls-2" d="M178.82 57.69a1.7 1.7 0 0 1 .09 3.39h-.09a1.7 1.7 0 0 1-.09-3.39h.09m0-1h-.14a2.7 2.7 0 0 0 .14 5.39h.18a2.7 2.7 0 0 0-.14-5.39z" transform="translate(-13.28 -20.22)"/><ellipse class="cls-21" cx="195.32" cy="40.06" rx="5.13" ry="3.68"/><path class="cls-2" d="M208.6 57.1c2.56 0 4.63 1.42 4.63 3.18s-2.07 3.18-4.63 3.18S204 62 204 60.28s2-3.18 4.6-3.18m0-1c-3.16 0-5.63 1.84-5.63 4.18s2.47 4.18 5.63 4.18 5.63-1.84 5.63-4.18-2.47-4.18-5.63-4.18z" transform="translate(-13.28 -20.22)"/><circle class="cls-22" cx="155.34" cy="25.11" r="2.99"/><path class="cls-2" d="M168.61 42.83a2.49 2.49 0 1 1-2.49 2.49 2.49 2.49 0 0 1 2.49-2.49m0-1a3.49 3.49 0 1 0 3.49 3.49 3.5 3.5 0 0 0-3.49-3.49z" transform="translate(-13.28 -20.22)"/><path class="cls-23" d="M191.65 77.72a2.2 2.2 0 0 1-.35-4.36h.35a2.2 2.2 0 0 1 .35 4.36z" transform="translate(-13.28 -20.22)"/><path class="cls-2" d="M191.65 73.83a1.7 1.7 0 0 1 .27 3.37h-.27a1.7 1.7 0 0 1-.27-3.37h.27m0-1A2.7 2.7 0 0 0 189 76a2.68 2.68 0 0 0 2.66 2.27 2.72 2.72 0 0 0 .43 0 2.7 2.7 0 0 0-.43-5.36z" transform="translate(-13.28 -20.22)"/><path class="cls-24" d="M196 77.14a1.78 1.78 0 0 1-1.69-2.32 1.77 1.77 0 0 1 1.69-1.23 1.8 1.8 0 0 1 .54.08 1.78 1.78 0 0 1-.54 3.47z" transform="translate(-13.28 -20.22)"/><path class="cls-2" d="M196 74.09a1.28 1.28 0 1 1-1.22.89 1.28 1.28 0 0 1 1.22-.89m0-1a2.28 2.28 0 1 0 .7.11 2.27 2.27 0 0 0-.7-.11z" transform="translate(-13.28 -20.22)"/><circle class="cls-25" cx="140.93" cy="24.01" r="2.2"/><path class="cls-2" d="M154.21 42.53a1.7 1.7 0 1 1-1.7 1.7 1.7 1.7 0 0 1 1.7-1.7m0-1a2.7 2.7 0 1 0 2.7 2.7 2.7 2.7 0 0 0-2.7-2.7z" transform="translate(-13.28 -20.22)"/><path class="cls-26" d="M158.41 44.81a2.77 2.77 0 0 1-2.51-2.51 1.25 1.25 0 0 1 1.3-1.3 2.77 2.77 0 0 1 2.51 2.51 1.25 1.25 0 0 1-1.3 1.3z" transform="translate(-13.28 -20.22)"/><path class="cls-2" d="M157.2 41.5a2 2 0 0 1 1.35.65c.66.66.85 1.52.44 1.94a.8.8 0 0 1-.58.22 2 2 0 0 1-1.35-.65c-.66-.66-.85-1.52-.44-1.94a.8.8 0 0 1 .58-.22m0-1a1.8 1.8 0 0 0-1.29.51 1.9 1.9 0 0 0-.45 1.81 3.25 3.25 0 0 0 .89 1.55 3 3 0 0 0 2.06.95 1.8 1.8 0 0 0 1.29-.51 1.9 1.9 0 0 0 .45-1.81 3.25 3.25 0 0 0-.89-1.55 3 3 0 0 0-2.06-.95z" transform="translate(-13.28 -20.22)"/><circle class="cls-27" cx="146.34" cy="28.11" r="2.99"/><path class="cls-2" d="M159.61 45.83a2.49 2.49 0 1 1-2.49 2.49 2.49 2.49 0 0 1 2.49-2.49m0-1a3.49 3.49 0 1 0 3.49 3.49 3.5 3.5 0 0 0-3.49-3.49z" transform="translate(-13.28 -20.22)"/><circle class="cls-28" cx="200.93" cy="50.01" r="2.2"/><path class="cls-2" d="M214.21 68.53a1.7 1.7 0 1 1-1.7 1.7 1.7 1.7 0 0 1 1.7-1.7m0-1a2.7 2.7 0 1 0 2.7 2.7 2.7 2.7 0 0 0-2.7-2.7z" transform="translate(-13.28 -20.22)"/><path class="cls-29" d="M216.91 76.78c-1.85 0-3.29-1-3.29-2.3s1.45-2.3 3.29-2.3 3.29 1 3.29 2.3-1.44 2.3-3.29 2.3z" transform="translate(-13.28 -20.22)"/><path class="cls-2" d="M216.91 72.69c1.54 0 2.79.8 2.79 1.8s-1.25 1.8-2.79 1.8-2.79-.8-2.79-1.8 1.25-1.8 2.79-1.8m0-1c-2.13 0-3.79 1.23-3.79 2.8s1.67 2.8 3.79 2.8 3.79-1.23 3.79-2.8-1.67-2.8-3.79-2.8z" transform="translate(-13.28 -20.22)"/><path class="cls-30" d="M223 74.08a1.8 1.8 0 0 1-.54-.08 1.78 1.78 0 1 1 .54.08z" transform="translate(-13.28 -20.22)"/><path class="cls-2" d="M223 71a1.28 1.28 0 1 1-1.22.89A1.28 1.28 0 0 1 223 71m0-1a2.28 2.28 0 1 0 .7.11 2.27 2.27 0 0 0-.7-.11z" transform="translate(-13.28 -20.22)"/></svg>