<?xml version="1.0" standalone="no"?>
<!DOCTYPE svg PUBLIC "-//W3C//DTD SVG 20010904//EN"
 "http://www.w3.org/TR/2001/REC-SVG-20010904/DTD/svg10.dtd">
<svg version="1.0" xmlns="http://www.w3.org/2000/svg"
 width="527.000000pt" height="527.000000pt" viewBox="0 0 527.000000 527.000000"
 preserveAspectRatio="xMidYMid meet">
<metadata>
Created by potrace 1.11, written by Peter Selinger 2001-2013
</metadata>
<g transform="translate(0.000000,527.000000) scale(0.100000,-0.100000)"
fill="#000000" stroke="none">
<path d="M2083 5010 c-119 -24 -242 -123 -303 -245 -33 -66 -35 -74 -35 -174
0 -108 4 -141 25 -198 14 -38 2 -55 -53 -78 -32 -13 -36 -12 -71 11 -46 32
-109 54 -152 54 -105 0 -169 -93 -138 -203 8 -29 16 -60 19 -71 3 -11 -6 -29
-23 -45 -21 -21 -38 -28 -77 -29 -157 -7 -272 -122 -276 -277 -2 -81 -16 -95
-90 -95 -183 0 -323 -201 -264 -380 10 -29 38 -77 63 -108 l46 -56 -18 -86
c-10 -47 -20 -96 -22 -110 -10 -52 -17 -62 -82 -105 -63 -41 -110 -93 -159
-175 -86 -146 -67 -365 44 -497 10 -12 28 -35 41 -51 12 -17 37 -38 55 -47 18
-10 59 -31 92 -49 35 -18 61 -39 63 -50 3 -13 -14 -36 -52 -71 -61 -57 -86
-104 -86 -160 0 -118 129 -223 285 -233 84 -5 88 -8 178 -125 75 -98 75 -95
35 -202 -16 -45 -22 -83 -22 -150 -1 -80 2 -96 27 -143 39 -74 89 -126 145
-150 113 -49 242 -37 384 36 l88 45 45 -17 c84 -32 89 -42 95 -153 5 -86 10
-108 38 -165 100 -204 332 -285 538 -189 98 46 170 129 218 253 22 55 55 67
110 41 95 -46 194 -37 274 25 53 41 67 44 123 22 60 -24 123 -26 173 -5 40 17
96 70 96 91 0 8 4 14 9 14 5 0 11 8 13 18 3 10 54 42 124 78 l119 61 77 -5
c94 -5 164 10 238 51 137 75 220 221 220 385 0 59 3 69 43 125 23 34 46 66 50
72 5 5 37 59 72 120 l63 109 63 22 c99 33 150 62 205 119 71 72 94 124 94 212
0 47 -6 86 -19 115 -17 40 -82 114 -143 165 l-27 22 0 156 c-1 86 2 167 5 179
3 12 20 31 37 41 52 30 114 101 147 168 41 84 48 157 25 244 -18 66 -31 90
-89 166 -40 53 -153 106 -242 114 -51 5 -73 12 -87 27 -35 38 -147 230 -147
252 0 12 7 41 16 65 11 28 17 80 18 144 2 154 -7 195 -67 310 -70 136 -159
203 -294 220 -72 9 -151 -23 -214 -87 -27 -27 -49 -53 -49 -58 0 -5 -9 -14
-20 -20 -17 -9 -39 -1 -130 45 -116 60 -114 57 -124 142 -8 63 -51 147 -103
199 -160 162 -447 132 -562 -59 -60 -99 -133 -91 -151 17 -20 126 -121 270
-225 323 -95 49 -212 64 -322 43z m578 -1769 c3 0 24 -18 47 -39 60 -56 94
-64 197 -47 34 5 48 1 88 -24 45 -29 74 -72 62 -92 -24 -38 -38 -268 -22 -344
5 -22 11 -51 13 -63 3 -13 11 -43 20 -65 8 -23 17 -49 19 -57 9 -35 40 -84 87
-135 44 -48 50 -59 44 -86 -8 -42 -69 -131 -136 -198 -87 -87 -120 -105 -160
-87 -14 6 -27 14 -30 17 -10 13 -149 68 -187 74 -36 6 -146 16 -168 16 -86 -2
-174 -17 -247 -41 -104 -35 -106 -35 -175 47 -26 32 -51 60 -54 63 -7 5 -36
57 -77 137 -13 24 -7 52 12 54 6 0 34 2 63 4 167 12 285 91 362 241 86 171 50
333 -112 505 l-28 30 25 20 c25 19 166 73 166 63 0 -3 7 -1 15 3 12 7 150 10
176 4z"/>
<path d="M5047 3435 c-4 -8 -2 -17 3 -20 6 -4 10 3 10 14 0 25 -6 27 -13 6z"/>
</g>
</svg>
